<mxfile host="app.diagrams.net" modified="2023-07-07T14:56:18.859Z" agent="Mozilla/5.0 (Windows NT 10.0; Win64; x64) AppleWebKit/537.36 (KHTML, like Gecko) Chrome/114.0.0.0 Safari/537.36 Edg/114.0.1823.67" etag="x6tvYBLtahKz8Q-4yzYU" version="21.6.1" type="github">
  <diagram name="PÃ¡gina-1" id="iCWF2OASFUzqBn4Qq3Wk">
    <mxGraphModel dx="1114" dy="584" grid="1" gridSize="10" guides="1" tooltips="1" connect="1" arrows="1" fold="1" page="1" pageScale="1" pageWidth="827" pageHeight="1169" math="0" shadow="0">
      <root>
        <mxCell id="0" />
        <mxCell id="1" parent="0" />
        <mxCell id="Hev8tEymv11EYS9qXBb5-1" value="Registro" style="swimlane;whiteSpace=wrap;html=1;" parent="1" vertex="1">
          <mxGeometry x="50" y="20" width="140" height="180" as="geometry" />
        </mxCell>
        <mxCell id="Hev8tEymv11EYS9qXBb5-6" value="" style="whiteSpace=wrap;html=1;" parent="Hev8tEymv11EYS9qXBb5-1" vertex="1">
          <mxGeometry x="20" y="50" width="70" height="20" as="geometry" />
        </mxCell>
        <mxCell id="Hev8tEymv11EYS9qXBb5-8" value="" style="whiteSpace=wrap;html=1;" parent="Hev8tEymv11EYS9qXBb5-1" vertex="1">
          <mxGeometry x="20" y="100" width="70" height="20" as="geometry" />
        </mxCell>
        <mxCell id="Hev8tEymv11EYS9qXBb5-11" value="Email" style="text;html=1;align=center;verticalAlign=middle;resizable=0;points=[];autosize=1;strokeColor=none;fillColor=none;" parent="Hev8tEymv11EYS9qXBb5-1" vertex="1">
          <mxGeometry x="20" y="80" width="50" height="30" as="geometry" />
        </mxCell>
        <mxCell id="Hev8tEymv11EYS9qXBb5-12" value="enviar" style="rounded=1;whiteSpace=wrap;html=1;strokeWidth=2;fillWeight=4;hachureGap=8;hachureAngle=45;fillColor=#1ba1e2;sketch=1;" parent="Hev8tEymv11EYS9qXBb5-1" vertex="1">
          <mxGeometry x="10" y="140" width="50" height="20" as="geometry" />
        </mxCell>
        <mxCell id="Hev8tEymv11EYS9qXBb5-13" value="enviar" style="rounded=1;whiteSpace=wrap;html=1;strokeWidth=2;fillWeight=4;hachureGap=8;hachureAngle=45;fillColor=#1ba1e2;sketch=1;" parent="Hev8tEymv11EYS9qXBb5-1" vertex="1">
          <mxGeometry x="80" y="140" width="50" height="20" as="geometry" />
        </mxCell>
        <mxCell id="Hev8tEymv11EYS9qXBb5-9" value="Nombre" style="text;html=1;align=center;verticalAlign=middle;resizable=0;points=[];autosize=1;strokeColor=none;fillColor=none;" parent="1" vertex="1">
          <mxGeometry x="55" y="48" width="70" height="30" as="geometry" />
        </mxCell>
      </root>
    </mxGraphModel>
  </diagram>
</mxfile>
